<?xml version="1.0" encoding="UTF-8"?>
<svg id="Livello_1" xmlns="http://www.w3.org/2000/svg" version="1.1" viewBox="0 0 146.17 52.91">
  <!-- Generator: Adobe Illustrator 29.0.0, SVG Export Plug-In . SVG Version: 2.1.0 Build 186)  -->
  <defs>
    <style>
      .st0 {
        fill: #0097d7;
      }

      .st1 {
        fill: #1d1d1b;
        stroke: #1d1d1b;
        stroke-miterlimit: 10;
        stroke-width: .2px;
      }
    </style>
  </defs>
  <g>
    <path class="st0" d="M17.28,37.03v-.76h.62v.76h-.62ZM17.9,37.71v3.77h-.62v-3.77h.62Z"/>
    <path class="st0" d="M20.62,36.27v5.21h-.62v-5.21h.62Z"/>
    <path class="st0" d="M28.06,38.37c-.16-.13-.36-.2-.63-.2-.22,0-.41.04-.56.12-.15.08-.27.19-.36.33-.09.14-.15.29-.19.47-.04.18-.06.36-.06.55,0,.18.02.35.06.51.04.16.11.31.19.44s.2.23.34.31c.14.08.31.12.5.12.31,0,.55-.08.72-.24.17-.16.28-.39.32-.68h.64c-.07.47-.24.83-.52,1.08-.28.25-.66.38-1.14.38-.29,0-.54-.05-.76-.14-.22-.09-.41-.22-.55-.39-.15-.17-.26-.37-.34-.61-.08-.24-.11-.5-.11-.78s.04-.55.11-.79c.07-.25.18-.46.33-.64.15-.18.33-.33.56-.43.22-.1.48-.16.78-.16.21,0,.41.03.6.08.19.05.35.13.5.24s.26.24.35.41.15.36.18.58h-.64c-.05-.24-.15-.42-.31-.55Z"/>
    <path class="st0" d="M31.47,36.27v5.21h-.62v-5.21h.62Z"/>
    <path class="st0" d="M33.57,37.03v-.76h.62v.76h-.62ZM34.19,37.71v3.77h-.62v-3.77h.62Z"/>
    <path class="st0" d="M36.83,37.71v.55h.01c.28-.43.69-.64,1.22-.64.23,0,.45.05.64.15.19.1.32.26.4.5.13-.2.29-.36.5-.47.21-.11.43-.17.68-.17.19,0,.36.02.51.06.15.04.28.11.39.19.11.09.19.2.26.34.06.14.09.31.09.5v2.77h-.62v-2.47c0-.12,0-.23-.03-.33-.02-.1-.06-.19-.11-.27-.05-.08-.13-.14-.22-.18-.09-.04-.22-.07-.37-.07-.31,0-.55.09-.72.26-.18.18-.26.41-.26.7v2.35h-.62v-2.47c0-.12-.01-.23-.03-.34-.02-.1-.06-.19-.11-.27-.05-.08-.13-.13-.22-.17-.09-.04-.21-.06-.35-.06-.18,0-.33.04-.46.11-.13.07-.23.16-.31.26-.08.1-.14.21-.18.32-.04.11-.05.2-.05.27v2.35h-.62v-3.77h.58Z"/>
    <path class="st0" d="M46.91,41.47c-.11.06-.26.09-.45.09-.16,0-.29-.05-.38-.13-.09-.09-.14-.24-.14-.44-.17.2-.37.35-.6.44-.23.09-.47.13-.73.13-.17,0-.33-.02-.49-.06-.15-.04-.29-.1-.4-.18-.11-.08-.2-.19-.27-.33s-.1-.3-.1-.49c0-.21.04-.39.11-.53.07-.14.17-.25.29-.33.12-.09.26-.15.41-.19.15-.04.31-.08.47-.11.17-.03.33-.06.49-.08.15-.02.29-.04.4-.07.12-.03.21-.08.28-.14.07-.06.1-.15.1-.27,0-.14-.03-.25-.08-.33s-.12-.15-.2-.19c-.08-.04-.17-.07-.27-.09-.1-.01-.2-.02-.3-.02-.26,0-.48.05-.66.15-.18.1-.27.29-.28.57h-.62c0-.23.06-.43.15-.59.09-.16.2-.29.35-.39.15-.1.31-.17.5-.21.19-.04.39-.07.6-.07.17,0,.34.01.51.04.17.02.32.07.46.15.14.08.25.18.33.32.08.14.12.31.12.53v1.94c0,.15,0,.25.03.32.02.07.07.1.17.1.05,0,.12,0,.19-.03v.48ZM45.91,39.53c-.08.06-.18.1-.31.13-.13.03-.26.05-.4.07-.14.02-.28.04-.42.06-.14.02-.27.06-.38.11-.11.05-.2.12-.27.21-.07.09-.11.21-.11.37,0,.1.02.19.06.26.04.07.09.13.16.17.07.04.14.08.23.09.09.02.18.03.28.03.2,0,.38-.03.53-.08s.27-.13.36-.21c.09-.08.16-.18.2-.28.04-.1.07-.19.07-.28v-.63Z"/>
    <path class="st0" d="M52.29,37.71v.6h.01c.26-.46.67-.69,1.23-.69.25,0,.46.03.62.1.17.07.3.16.4.29.1.12.17.27.22.43.04.17.06.35.06.56v2.48h-.62v-2.55c0-.23-.07-.42-.2-.55-.14-.14-.32-.21-.56-.21-.19,0-.35.03-.49.09-.14.06-.25.14-.35.25-.09.11-.16.23-.21.38-.05.14-.07.3-.07.47v2.13h-.62v-3.77h.58Z"/>
    <path class="st0" d="M59.53,41.24c-.28.21-.64.32-1.07.32-.3,0-.56-.05-.78-.15-.22-.1-.41-.23-.56-.41-.15-.17-.26-.38-.34-.63-.08-.24-.12-.51-.13-.8,0-.29.04-.55.13-.79.09-.24.21-.45.37-.62.16-.18.35-.31.56-.41.22-.1.45-.15.71-.15.34,0,.61.07.84.21.22.14.4.31.53.53.13.21.23.45.28.7.05.25.07.49.06.72h-2.83c0,.17.01.32.06.47.04.15.11.28.21.39.1.11.22.21.37.27.15.07.33.1.53.1.26,0,.48-.06.65-.18.17-.12.28-.31.33-.55h.61c-.08.42-.27.74-.55.96ZM59.38,38.82c-.06-.13-.13-.25-.23-.34-.1-.09-.21-.17-.34-.23-.13-.06-.27-.08-.43-.08s-.31.03-.43.08c-.13.06-.24.13-.33.23-.09.1-.17.21-.22.34-.05.13-.08.27-.09.41h2.17c0-.15-.04-.29-.1-.42Z"/>
    <path class="st0" d="M62.53,36.27v5.21h-.62v-5.21h.62Z"/>
    <path class="st0" d="M65.25,36.27v5.21h-.62v-5.21h.62Z"/>
    <path class="st0" d="M69.98,41.24c-.28.21-.64.32-1.07.32-.3,0-.56-.05-.78-.15-.22-.1-.41-.23-.56-.41-.15-.17-.26-.38-.34-.63-.08-.24-.12-.51-.13-.8,0-.29.04-.55.13-.79.09-.24.21-.45.37-.62.16-.18.35-.31.56-.41.22-.1.45-.15.71-.15.34,0,.61.07.84.21.22.14.4.31.53.53.13.21.23.45.28.7.05.25.07.49.06.72h-2.83c0,.17.01.32.06.47.04.15.11.28.21.39.1.11.22.21.37.27.15.07.33.1.53.1.26,0,.48-.06.65-.18.17-.12.28-.31.33-.55h.61c-.08.42-.27.74-.55.96ZM69.83,38.82c-.06-.13-.13-.25-.23-.34-.1-.09-.21-.17-.34-.23-.13-.06-.27-.08-.43-.08s-.31.03-.43.08c-.13.06-.24.13-.33.23-.09.1-.17.21-.22.34-.05.13-.08.27-.09.41h2.17c0-.15-.04-.29-.1-.42Z"/>
    <path class="st0" d="M76.03,37.71v.6h.01c.26-.46.67-.69,1.23-.69.25,0,.46.03.62.1.17.07.3.16.4.29.1.12.17.27.22.43.04.17.06.35.06.56v2.48h-.62v-2.55c0-.23-.07-.42-.2-.55s-.32-.21-.56-.21c-.19,0-.35.03-.49.09-.14.06-.25.14-.35.25-.09.11-.16.23-.21.38-.05.14-.07.3-.07.47v2.13h-.62v-3.77h.58Z"/>
    <path class="st0" d="M80.51,38.82c.08-.24.2-.45.35-.63.16-.18.35-.32.58-.42.23-.1.49-.15.79-.15s.56.05.79.15c.23.1.42.24.57.42.16.18.27.39.35.63.08.24.12.5.12.78s-.04.54-.12.77c-.08.24-.2.45-.35.62-.16.18-.35.32-.57.42-.23.1-.49.15-.79.15s-.56-.05-.79-.15c-.23-.1-.42-.24-.58-.42-.16-.18-.27-.39-.35-.62-.08-.24-.12-.5-.12-.77s.04-.54.12-.78ZM81.15,40.21c.06.18.14.33.25.45.11.12.23.21.38.27.14.06.3.09.46.09s.31-.03.46-.09c.14-.06.27-.15.38-.27.11-.12.19-.27.25-.45.06-.18.09-.38.09-.61s-.03-.43-.09-.61c-.06-.18-.15-.33-.25-.45-.11-.12-.23-.21-.38-.28-.14-.06-.29-.09-.46-.09s-.31.03-.46.09c-.14.06-.27.16-.38.28-.11.12-.19.27-.25.45-.06.18-.09.38-.09.61s.03.43.09.61Z"/>
    <path class="st0" d="M86.36,40.64c.06.09.13.17.23.23.09.06.2.1.32.12.12.02.24.04.37.04.1,0,.2,0,.31-.02.11-.01.2-.04.3-.08.09-.04.16-.1.22-.17.06-.08.09-.17.09-.29,0-.16-.06-.28-.18-.36-.12-.08-.27-.15-.46-.2-.18-.05-.38-.1-.59-.14-.21-.04-.41-.1-.6-.17-.18-.08-.33-.18-.46-.32-.12-.14-.18-.33-.18-.57,0-.19.04-.35.13-.49.08-.14.19-.25.33-.33.13-.09.28-.15.45-.19.17-.04.33-.06.5-.06.21,0,.41.02.59.05.18.04.34.1.48.19.14.09.25.21.33.37.08.15.13.34.15.57h-.62c0-.12-.04-.22-.09-.3-.05-.08-.12-.14-.2-.19-.08-.05-.17-.08-.27-.11-.1-.02-.2-.03-.3-.03-.09,0-.19,0-.28.02-.09.01-.18.04-.26.08-.08.04-.14.08-.19.15-.05.06-.07.14-.07.24,0,.11.04.2.11.27.08.07.17.13.29.18s.25.08.39.12c.15.03.29.07.44.1.16.03.31.08.46.12.15.05.28.11.39.19.11.08.21.18.28.3.07.12.11.27.11.45,0,.23-.05.42-.14.57-.1.15-.22.27-.37.37-.15.09-.33.16-.52.19-.19.04-.38.05-.57.05-.21,0-.41-.02-.6-.07-.19-.04-.36-.12-.5-.22-.15-.1-.26-.23-.35-.39-.09-.16-.14-.36-.15-.59h.62c0,.14.04.25.09.35Z"/>
    <path class="st0" d="M92.24,37.71v.55h-.75v2.34c0,.07,0,.13.02.17.01.04.04.08.07.1.04.02.08.04.14.05.06,0,.14.01.24.01h.28v.55h-.47c-.16,0-.3-.01-.41-.03-.11-.02-.21-.06-.28-.12-.07-.06-.12-.14-.16-.25-.03-.11-.05-.25-.05-.42v-2.4h-.64v-.55h.64v-1.13h.62v1.13h.75Z"/>
    <path class="st0" d="M94.59,37.71v.8h.02c.15-.31.34-.53.55-.68.22-.15.5-.21.83-.2v.66c-.25,0-.46.03-.63.1-.18.07-.32.17-.42.3-.11.13-.19.29-.23.48-.05.19-.07.4-.07.65v1.68h-.62v-3.77h.58Z"/>
    <path class="st0" d="M100.09,41.24c-.28.21-.64.32-1.07.32-.3,0-.56-.05-.78-.15-.22-.1-.41-.23-.56-.41-.15-.17-.26-.38-.34-.63-.08-.24-.12-.51-.13-.8,0-.29.04-.55.13-.79.09-.24.21-.45.37-.62.16-.18.35-.31.56-.41.22-.1.46-.15.71-.15.34,0,.61.07.84.21.22.14.4.31.53.53.13.21.23.45.28.7.05.25.07.49.06.72h-2.83c0,.17.01.32.06.47.04.15.11.28.21.39.1.11.22.21.37.27.15.07.33.1.53.1.26,0,.48-.06.65-.18.17-.12.28-.31.33-.55h.61c-.08.42-.26.74-.55.96ZM99.94,38.82c-.06-.13-.13-.25-.23-.34-.1-.09-.21-.17-.34-.23-.13-.06-.27-.08-.43-.08s-.3.03-.43.08c-.13.06-.24.13-.33.23-.09.1-.17.21-.22.34-.05.13-.08.27-.09.41h2.17c0-.15-.04-.29-.1-.42Z"/>
    <path class="st0" d="M106.14,37.71v.55h.01c.28-.43.69-.64,1.22-.64.23,0,.45.05.63.15.19.1.32.26.4.5.13-.2.29-.36.5-.47.21-.11.43-.17.68-.17.19,0,.36.02.52.06.15.04.28.11.39.19.11.09.19.2.25.34.06.14.09.31.09.5v2.77h-.62v-2.47c0-.12,0-.23-.03-.33-.02-.1-.06-.19-.11-.27-.05-.08-.13-.14-.22-.18-.09-.04-.22-.07-.37-.07-.31,0-.55.09-.72.26s-.26.41-.26.7v2.35h-.62v-2.47c0-.12-.01-.23-.03-.34-.02-.1-.06-.19-.11-.27-.05-.08-.13-.13-.22-.17-.09-.04-.21-.06-.35-.06-.18,0-.33.04-.46.11-.13.07-.23.16-.31.26-.08.1-.14.21-.18.32-.04.11-.05.2-.05.27v2.35h-.62v-3.77h.58Z"/>
    <path class="st0" d="M116.22,41.47c-.11.06-.25.09-.45.09-.16,0-.29-.05-.38-.13-.09-.09-.14-.24-.14-.44-.17.2-.37.35-.59.44-.23.09-.47.13-.73.13-.17,0-.33-.02-.49-.06-.15-.04-.29-.1-.4-.18-.11-.08-.2-.19-.27-.33-.07-.13-.1-.3-.1-.49,0-.21.04-.39.11-.53.07-.14.17-.25.29-.33.12-.09.25-.15.41-.19.15-.04.31-.08.47-.11.17-.03.33-.06.49-.08.15-.02.29-.04.41-.07.12-.03.21-.08.28-.14.07-.06.1-.15.1-.27,0-.14-.03-.25-.08-.33-.05-.08-.12-.15-.2-.19-.08-.04-.17-.07-.27-.09-.1-.01-.2-.02-.3-.02-.26,0-.48.05-.66.15-.18.1-.27.29-.29.57h-.62c0-.23.06-.43.15-.59.09-.16.21-.29.35-.39.15-.1.31-.17.5-.21.19-.04.39-.07.6-.07.17,0,.34.01.51.04s.32.07.46.15.25.18.33.32c.08.14.12.31.12.53v1.94c0,.15,0,.25.03.32.02.07.07.1.17.1.05,0,.12,0,.19-.03v.48ZM115.22,39.53c-.08.06-.18.1-.31.13-.13.03-.26.05-.4.07-.14.02-.28.04-.42.06-.14.02-.27.06-.38.11-.11.05-.2.12-.27.21-.07.09-.11.21-.11.37,0,.1.02.19.06.26.04.07.09.13.16.17.07.04.14.08.23.09s.18.03.28.03c.2,0,.38-.03.53-.08.15-.06.27-.13.36-.21.09-.08.16-.18.21-.28.04-.1.07-.19.07-.28v-.63Z"/>
    <path class="st0" d="M118.48,37.71v.6h.01c.26-.46.67-.69,1.23-.69.25,0,.45.03.62.1.17.07.3.16.4.29.1.12.17.27.22.43.04.17.06.35.06.56v2.48h-.62v-2.55c0-.23-.07-.42-.21-.55-.14-.14-.32-.21-.56-.21-.19,0-.35.03-.49.09-.14.06-.25.14-.35.25-.09.11-.16.23-.21.38-.05.14-.07.3-.07.47v2.13h-.62v-3.77h.58Z"/>
    <path class="st0" d="M123.09,37.03v-.76h.62v.76h-.62ZM123.71,37.71v3.77h-.62v-3.77h.62Z"/>
  </g>
  <g>
    <g>
      <polygon class="st1" points="25.23 12.53 24.56 12.53 17.06 31.06 17.63 31.06 24.87 13.05 24.92 13.05 31.98 31.06 32.55 31.06 25.23 12.53"/>
      <path class="st1" d="M44.16,31.06h-10.3v-.65l9.34-12.17h-8.64v-.52h9.18v.65l-9.34,12.17h9.76v.52Z"/>
      <path class="st1" d="M55.97,31.06h-10.3v-.65l9.34-12.17h-8.64v-.52h9.18v.65l-9.34,12.17h9.76v.52Z"/>
      <path class="st1" d="M57.59,27c.2.77.51,1.44.92,2.01.42.57.95,1.02,1.61,1.35.66.33,1.46.49,2.41.49,1.4,0,2.56-.37,3.49-1.1.92-.74,1.5-1.84,1.72-3.31h.52c-.19,1.56-.8,2.76-1.84,3.62-1.04.86-2.32,1.28-3.84,1.28-1.04.02-1.92-.15-2.66-.49-.73-.35-1.34-.83-1.8-1.46-.47-.63-.81-1.38-1.04-2.23-.22-.86-.34-1.78-.34-2.76,0-1.11.16-2.09.49-2.96.33-.86.76-1.59,1.3-2.19.54-.6,1.16-1.05,1.87-1.36.71-.31,1.44-.47,2.18-.47,1.04,0,1.93.2,2.69.6.75.4,1.37.93,1.84,1.58.47.66.82,1.41,1.04,2.26.22.85.31,1.73.27,2.65h-11.15c.02.9.12,1.73.32,2.5ZM67.56,21.65c-.22-.73-.56-1.38-1-1.93-.44-.55-.99-.99-1.65-1.31-.66-.32-1.42-.48-2.28-.48-.73,0-1.4.14-2.03.42-.63.28-1.19.68-1.66,1.21-.48.53-.86,1.16-1.15,1.91-.29.74-.47,1.58-.52,2.52h10.63c0-.81-.11-1.59-.34-2.32Z"/>
      <path class="st1" d="M70.49,31.06v-13.33h.52v3.29h.05c.12-.5.31-.97.57-1.41.26-.44.61-.83,1.04-1.15.43-.33.95-.59,1.54-.78.6-.19,1.29-.28,2.09-.26v.52c-.92-.05-1.71.07-2.37.38-.67.3-1.21.72-1.65,1.24-.43.53-.75,1.14-.96,1.83-.21.69-.31,1.4-.31,2.13v7.55h-.52Z"/>
      <path class="st1" d="M76.9,21.76c.26-.84.64-1.58,1.15-2.22.51-.64,1.14-1.15,1.88-1.55.74-.39,1.61-.58,2.59-.58s1.83.19,2.57.58c.74.39,1.37.9,1.88,1.55.51.64.9,1.38,1.16,2.22.26.84.39,1.72.39,2.63s-.13,1.79-.39,2.63c-.26.84-.64,1.58-1.16,2.22-.51.64-1.14,1.15-1.88,1.53-.74.38-1.61.57-2.59.57s-1.82-.19-2.57-.57c-.74-.38-1.37-.89-1.88-1.53-.51-.64-.89-1.38-1.15-2.22-.26-.84-.39-1.72-.39-2.63s.13-1.79.39-2.63ZM77.38,26.83c.23.78.58,1.47,1.05,2.06.47.6,1.04,1.07,1.72,1.43.68.35,1.47.53,2.37.53s1.67-.18,2.35-.53c.68-.36,1.26-.83,1.72-1.43.47-.6.82-1.28,1.05-2.06.23-.78.35-1.59.35-2.44s-.12-1.63-.35-2.41c-.23-.78-.58-1.46-1.05-2.06-.47-.6-1.04-1.08-1.72-1.44-.68-.36-1.47-.54-2.35-.54s-1.69.18-2.37.54c-.68.36-1.26.84-1.72,1.44-.47.6-.82,1.29-1.05,2.06-.23.78-.35,1.58-.35,2.41s.12,1.66.35,2.44Z"/>
    </g>
    <rect class="st0" x="14.92" y="22.89" width="11.29" height="3"/>
    <g>
      <path class="st0" d="M104.15,18.83c-.14-.54-.33-1.03-.57-1.48-.24-.45-.55-.84-.93-1.17-.38-.33-.83-.58-1.34-.77-.51-.18-1.1-.27-1.78-.27-.99,0-1.84.2-2.56.6-.72.4-1.3.93-1.75,1.6-.45.67-.78,1.42-1,2.27-.22.85-.33,1.71-.33,2.59s.11,1.75.33,2.59c.22.85.55,1.6,1,2.27.45.67,1.03,1.2,1.75,1.6.72.4,1.57.6,2.56.6.73,0,1.37-.13,1.92-.38.55-.25,1.03-.6,1.43-1.04.4-.44.71-.96.93-1.54.22-.59.37-1.22.44-1.89h3.17c-.07,1.11-.31,2.12-.71,3.04-.41.92-.96,1.71-1.65,2.37-.69.67-1.5,1.18-2.44,1.54-.93.36-1.96.55-3.09.55-1.38,0-2.62-.25-3.72-.76-1.1-.51-2.03-1.21-2.79-2.09-.76-.88-1.35-1.91-1.75-3.09-.41-1.18-.61-2.43-.61-3.76s.2-2.56.61-3.74c.41-1.18.99-2.21,1.75-3.09.76-.88,1.69-1.58,2.79-2.1,1.1-.52,2.34-.78,3.72-.78,1.04,0,2.01.14,2.93.43.92.29,1.72.7,2.43,1.25.7.55,1.27,1.21,1.7,1.98.43.78.7,1.67.8,2.67h-3.24Z"/>
      <path class="st0" d="M117.61,12.5c1.38,0,2.62.26,3.72.78,1.1.52,2.03,1.22,2.79,2.1.76.88,1.34,1.91,1.75,3.09.41,1.18.61,2.42.61,3.74s-.2,2.59-.61,3.76c-.41,1.18-.99,2.21-1.75,3.09-.76.88-1.69,1.58-2.79,2.09-1.1.51-2.34.76-3.72.76s-2.62-.25-3.72-.76c-1.1-.51-2.03-1.21-2.79-2.09-.76-.88-1.35-1.91-1.75-3.09-.41-1.18-.61-2.43-.61-3.76s.2-2.56.61-3.74c.41-1.18.99-2.21,1.75-3.09.76-.88,1.69-1.58,2.79-2.1,1.1-.52,2.34-.78,3.72-.78ZM117.61,15.14c-.99,0-1.84.2-2.56.6-.72.4-1.3.93-1.75,1.6-.45.67-.78,1.42-1,2.27-.22.85-.33,1.71-.33,2.59s.11,1.75.33,2.59c.22.85.55,1.6,1,2.27.45.67,1.03,1.2,1.75,1.6.72.4,1.57.6,2.56.6s1.84-.2,2.55-.6c.72-.4,1.3-.93,1.75-1.6.45-.67.78-1.42,1-2.27.22-.85.32-1.71.32-2.59s-.11-1.75-.32-2.59c-.22-.85-.55-1.6-1-2.27-.45-.67-1.03-1.2-1.75-1.6-.72-.4-1.57-.6-2.55-.6Z"/>
    </g>
  </g>
  <path class="st0" d="M126.85,29.79c.06-.29.17-.54.33-.74.16-.21.39-.36.68-.47.29-.11.68-.17,1.15-.17s.83.05,1.11.15c.29.1.51.23.68.41.17.17.28.37.34.6.06.23.09.47.09.73,0,.47-.08.86-.23,1.18-.16.32-.36.61-.62.87l-1.07,1.04c-.08.08-.16.17-.26.26-.09.1-.16.2-.19.3h2.38v1.37h-4.55c0-.49.07-.95.22-1.38.15-.43.42-.85.81-1.26l1.21-1.23c.18-.18.3-.34.38-.5.07-.16.11-.37.11-.63,0-.29-.04-.49-.13-.6-.09-.11-.2-.17-.34-.17-.07,0-.13.01-.19.04-.06.02-.11.07-.16.13s-.09.16-.12.28c-.03.12-.04.28-.04.47v.29h-1.7c0-.35.04-.67.1-.96Z"/>
</svg>